<?xml version="1.0" standalone="no"?>
<!DOCTYPE svg PUBLIC "-//W3C//DTD SVG 20010904//EN"
 "http://www.w3.org/TR/2001/REC-SVG-20010904/DTD/svg10.dtd">
<svg version="1.0" xmlns="http://www.w3.org/2000/svg"
 width="1024.000000pt" height="1024.000000pt" viewBox="0 0 1024.000000 1024.000000"
 preserveAspectRatio="xMidYMid meet">

<ellipse fill="#fff" stroke="#000" stroke-width="0" stroke-opacity="null" fill-opacity="null" cx="535" cy="498" id="svg_6" rx="298" ry="298"/>
<g transform="translate(0.000000,1024.000000) scale(0.100000,-0.100000)"
fill="#192a56" stroke="none">
<path d="M5155 7202 c12 -9 105 -93 208 -186 l188 -170 -4 -1365 c-3 -1240 -5
-1374 -20 -1451 -37 -181 -90 -303 -170 -388 -97 -102 -195 -144 -342 -145
-160 -1 -265 43 -375 160 -116 122 -192 306 -220 533 -19 162 -9 477 24 697 7
48 12 89 11 90 -1 2 -203 -148 -450 -332 -417 -310 -446 -334 -419 -340 132
-30 168 -58 210 -168 108 -286 165 -385 294 -517 213 -217 488 -322 890 -337
435 -16 796 99 1050 334 143 132 243 319 265 495 l7 55 -51 48 c-34 31 -58 66
-73 104 l-23 56 -3 1215 -2 1214 207 208 208 208 -715 0 c-677 -1 -714 -2
-695 -18z"/>
<path d="M6472 6947 l-162 -162 0 -1206 c0 -818 3 -1224 11 -1265 14 -77 43
-126 118 -197 34 -32 61 -64 61 -71 0 -26 -48 -154 -87 -231 -167 -331 -564
-605 -1008 -696 -146 -29 -439 -37 -605 -15 -209 28 -375 94 -563 222 -84 58
-87 59 -87 44 0 -28 159 -143 280 -205 191 -96 359 -134 625 -142 277 -8 495
26 700 107 267 106 498 296 672 555 76 113 163 313 163 375 0 14 -28 49 -79
98 l-79 77 -21 93 c-21 92 -21 113 -21 1258 l0 1164 146 149 c125 129 144 152
135 169 -27 50 -30 48 -199 -121z"/>
<path d="M4655 4898 c-15 -42 -46 -260 -56 -390 -17 -225 -3 -386 46 -530 60
-177 186 -308 361 -374 99 -37 120 -31 44 14 -98 56 -217 180 -267 277 -86
166 -122 376 -103 595 10 111 46 367 56 403 5 14 -1 17 -36 17 -23 0 -42 -5
-45 -12z"/>
</g>
</svg>
